REM MD5 794446f1343ffc5502a10fff12047199
FILE "All Star Tennis (Europe).bin" BINARY
  TRACK 01 MODE2/2352
    INDEX 01 00:00:00
  TRACK 02 AUDIO
    INDEX 00 00:15:70
    INDEX 01 00:17:70
  TRACK 03 AUDIO
    INDEX 00 03:11:06
    INDEX 01 03:13:06
  TRACK 04 AUDIO
    INDEX 00 06:48:26
    INDEX 01 06:50:26
REM LEADOUT 10:00:26
